<svg width="24" height="24" viewBox="0 0 24 24" fill="none" xmlns="http://www.w3.org/2000/svg">
<path d="M12 0C5.373 0 0 5.373 0 12C0 18.627 5.373 24 12 24C18.627 24 24 18.627 24 12C24 5.373 18.627 0 12 0ZM12 22C6.856 22 2.61 18.095 2.062 13.095L4.447 13.73L5.802 8.747L2.908 7.86C4.486 4.409 7.964 2 12 2C16.047 2 19.532 4.421 21.104 7.886L18.197 8.746L19.552 13.729L21.936 13.094C21.39 18.095 17.144 22 12 22ZM11.064 15.968L10.393 16.875C10.212 17.121 9.822 17.185 9.572 17C9.309 16.808 9.252 16.44 9.446 16.177L10.116 15.272C10.31 15.01 10.677 14.954 10.939 15.146C11.201 15.338 11.258 15.706 11.064 15.968V15.968ZM9.877 15.1L9.202 16.015C9.023 16.259 8.64 16.321 8.383 16.133C8.122 15.94 8.061 15.58 8.254 15.319L8.93 14.405C9.121 14.144 9.489 14.087 9.75 14.279C10.013 14.471 10.071 14.84 9.877 15.1ZM8.691 14.234L8.02 15.141C7.838 15.389 7.446 15.449 7.198 15.267C6.936 15.075 6.879 14.706 7.071 14.445L7.743 13.538C7.934 13.276 8.302 13.219 8.565 13.413C8.828 13.604 8.883 13.972 8.691 14.234ZM16.973 14.686C17.203 14.915 17.203 15.288 16.973 15.518C16.744 15.747 16.37 15.747 16.142 15.518L14.454 13.83C14.399 13.775 14.31 13.773 14.252 13.826C14.19 13.883 14.187 13.98 14.247 14.039L15.809 15.602C16.038 15.832 16.038 16.204 15.809 16.434C15.58 16.664 15.207 16.664 14.977 16.434L13.707 15.163C13.65 15.106 13.559 15.106 13.502 15.162C13.44 15.219 13.44 15.313 13.499 15.372L14.553 16.426C14.782 16.656 14.782 17.027 14.553 17.258C14.324 17.487 13.951 17.487 13.721 17.258L13.177 16.713C13.318 15.845 12.68 15.137 11.901 15.069C11.694 14.577 11.233 14.248 10.716 14.204C10.518 13.728 10.062 13.384 9.529 13.337C9.107 12.33 7.73 12.144 7.07 13.044L6.703 13.54C6.33 13.399 5.926 13.282 5.462 13.173L6.524 9.269C8.108 9.255 9.354 7.754 10.815 8.678C10.336 9.269 9.945 9.741 9.353 10.087C8.88 10.363 8.659 10.904 8.802 11.434C8.983 12.098 9.656 12.562 10.443 12.562C11.483 12.562 12.559 11.708 13.378 11.094C13.859 11.574 16.569 14.24 16.973 14.686V14.686ZM12.127 16.012C12.389 16.203 12.445 16.572 12.252 16.832L11.58 17.742C11.4 17.988 11.012 18.053 10.758 17.867C10.496 17.675 10.44 17.307 10.631 17.045L11.305 16.135C11.496 15.877 11.863 15.818 12.127 16.012V16.012ZM17.483 9.294L18.563 13.267C18.176 13.44 17.789 13.641 17.385 13.889C17.385 13.889 14.781 11.319 14.007 10.545C13.595 10.132 13.31 10.076 12.833 10.46C12.226 10.949 11.483 11.445 10.935 11.638C9.859 12.014 9.271 11.098 9.772 10.806C10.789 10.213 11.285 9.358 12.138 8.391C12.375 8.122 12.658 8.023 12.945 8.023C13.258 8.023 13.58 8.14 13.857 8.284C15.121 8.937 16.272 9.383 17.483 9.294V9.294ZM13.217 17.168C13.623 17.574 13.323 18 12.871 18C12.754 18 12.625 17.973 12.496 17.906C12.691 17.641 12.978 17.288 13.085 17.035L13.217 17.168Z" fill="#4F46E5"/>
</svg>
