<svg width="24" height="24" viewBox="0 0 24 24" fill="none" xmlns="http://www.w3.org/2000/svg">
<path d="M0 12.562L1.932 5L5.458 5.891L3.484 13.453L0 12.562ZM18.415 13.464C18.54 13.751 18.602 14.062 18.57 14.374C18.491 15.203 17.872 15.822 17.113 15.976C16.859 16.509 16.38 16.863 15.828 16.978C15.584 17.49 15.106 17.868 14.532 17.988C14.207 18.656 13.562 19 12.858 19C12.342 19 11.854 18.817 11.502 18.462C10.574 18.866 9.6 18.414 9.27 17.599C8.674 17.531 8.163 17.147 7.938 16.602C7.339 16.531 6.824 16.144 6.598 15.599C5.41 15.461 4.75 14.159 5.4 13.104C5.167 13.046 4.906 13 4.649 12.952L5.032 11.488C5.556 11.588 6.042 11.707 6.485 11.846C7.398 11.191 8.636 11.551 9.034 12.525C9.642 12.594 10.15 12.989 10.368 13.525C10.966 13.593 11.479 13.976 11.703 14.523C12.441 14.605 13.063 15.176 13.152 15.957L13.154 16.182L13.604 16.584C13.856 16.875 14.284 16.908 14.564 16.69C14.85 16.467 14.888 16.066 14.639 15.781L13.182 14.502C13.025 14.363 13.234 14.122 13.395 14.261L14.886 15.569C15.143 15.863 15.578 15.901 15.855 15.683C16.14 15.463 16.171 15.052 15.923 14.767L14.027 13.139C13.865 13.004 14.075 12.759 14.235 12.897L16.179 14.566C16.427 14.848 16.857 14.901 17.146 14.68C17.429 14.46 17.495 14.074 17.144 13.685C15.904 12.573 14.473 11.28 13.001 9.889C12.646 10.377 10.825 11.391 9.722 11.391C8.619 11.391 7.943 10.716 7.762 10.048C7.605 9.466 7.813 8.909 8.294 8.628C8.829 8.315 9.349 7.867 9.856 7.36C9.067 6.774 8.653 6.962 7.789 7.373C7.286 7.611 6.689 7.894 5.935 8.02L6.372 6.35C7.699 5.862 8.921 4.742 10.877 6.267L11.368 5.715C11.763 5.268 12.279 5 12.871 5C13.307 5 13.781 5.161 14.279 5.417C15.797 6.21 16.572 6.673 17.722 6.711L18.116 8.219H18.108C16.311 8.252 15.432 7.711 13.592 6.749C13.079 6.486 12.733 6.431 12.492 6.705C11.508 7.825 10.461 9.014 9.3 9.768C9.873 10.226 11.319 9.31 11.892 8.848C12.142 8.647 12.53 8.38 13.02 8.38C13.573 8.38 13.975 8.711 14.264 8.999C14.944 9.679 16.834 11.388 17.671 12.141C18.105 11.899 18.539 11.706 18.982 11.536L19.365 13.003C19.046 13.137 18.732 13.289 18.415 13.464V13.464ZM7.378 14.339L7.987 13.592C8.237 13.292 8.202 12.87 7.907 12.648C7.611 12.425 7.17 12.49 6.921 12.788L6.311 13.537C6.06 13.835 6.097 14.258 6.391 14.479C6.685 14.7 7.128 14.638 7.378 14.339V14.339ZM8.706 15.345L9.323 14.59C9.571 14.293 9.536 13.868 9.241 13.647C8.947 13.426 8.507 13.488 8.257 13.789L7.641 14.543C7.39 14.843 7.431 15.255 7.727 15.479C8.024 15.701 8.456 15.646 8.706 15.345V15.345ZM10.049 16.337L10.657 15.59C10.908 15.291 10.872 14.869 10.577 14.646C10.281 14.424 9.842 14.489 9.591 14.788L8.982 15.533C8.731 15.833 8.769 16.257 9.064 16.478C9.357 16.699 9.798 16.638 10.049 16.337ZM11.914 15.646C11.62 15.422 11.179 15.487 10.927 15.785L10.315 16.536C10.066 16.835 10.102 17.258 10.397 17.479C10.692 17.7 11.132 17.639 11.383 17.337L11.993 16.587C12.246 16.29 12.21 15.867 11.914 15.646ZM13.341 16.78L13.101 16.568C13.038 16.807 12.928 17.032 12.769 17.218L12.411 17.659C12.544 17.765 12.699 17.835 12.859 17.835C13.008 17.835 13.154 17.789 13.274 17.697C13.558 17.474 13.591 17.065 13.341 16.78V16.78ZM18.542 5.891L20.516 13.453L24 12.562L22.068 5L18.542 5.891V5.891Z" fill="#EBE5F5"/>
</svg>
